HIERARCHY
ROOT Hips
{
	OFFSET	0.0000	0.0000	0.0000
	CHANNELS 6 Xposition Yposition Zposition Xrotation Yrotation Zrotation
	JOINT Spine
	{
		OFFSET	0.0000	9.6567	-5.2257
		CHANNELS 3 Xrotation Yrotation Zrotation
		JOINT Spine1
		{
			OFFSET	0.0000	8.8125	0.4604
			CHANNELS 3 Xrotation Yrotation Zrotation
			JOINT Spine2
			{
				OFFSET	0.0000	10.9044	-2.4272
				CHANNELS 3 Xrotation Yrotation Zrotation
				JOINT Neck
				{
					OFFSET	0.0000	24.5727	-0.5110
					CHANNELS 3 Xrotation Yrotation Zrotation
					JOINT Head
					{
						OFFSET	-0.0001	13.8765	3.7744
						CHANNELS 3 Xrotation Yrotation Zrotation
						End Site
						{
							OFFSET	0.0001	19.3889	0.5788
						}
					}
				}
				JOINT LeftShoulder
				{
					OFFSET	2.4808	23.7139	8.1245
					CHANNELS 3 Xrotation Yrotation Zrotation
					JOINT LeftArm
					{
						OFFSET	14.4933	3.4014	-5.5038
						CHANNELS 3 Xrotation Yrotation Zrotation
						JOINT LeftForeArm
						{
							OFFSET	30.7865	-0.1092	-0.2668
							CHANNELS 3 Xrotation Yrotation Zrotation
							JOINT LeftHand
							{
								OFFSET	25.6825	0.0745	-0.1539
								CHANNELS 3 Xrotation Yrotation Zrotation
								JOINT LeftHandIndex1
								{
									OFFSET	9.9538	0.8705	2.7646
									CHANNELS 3 Xrotation Yrotation Zrotation
									JOINT LeftHandIndex2
									{
										OFFSET	3.7232	-0.9079	0.6560
										CHANNELS 3 Xrotation Yrotation Zrotation
										JOINT LeftHandIndex3
										{
											OFFSET	2.5418	-0.6200	0.4480
											CHANNELS 3 Xrotation Yrotation Zrotation
											End Site
											{
												OFFSET	1.8087	-0.5399	0.2934
											}
										}
									}
								}
								JOINT LeftHandMiddle1
								{
									OFFSET	10.1024	1.0053	0.2407
									CHANNELS 3 Xrotation Yrotation Zrotation
									JOINT LeftHandMiddle2
									{
										OFFSET	4.6036	0.0129	-0.0272
										CHANNELS 3 Xrotation Yrotation Zrotation
										JOINT LeftHandMiddle3
										{
											OFFSET	2.5518	0.0078	-0.0155
											CHANNELS 3 Xrotation Yrotation Zrotation
											End Site
											{
												OFFSET	2.2919	-0.1619	0.0031
											}
										}
									}
								}
								JOINT LeftHandRing1
								{
									OFFSET	9.5741	0.6709	-2.2651
									CHANNELS 3 Xrotation Yrotation Zrotation
									JOINT LeftHandRing2
									{
										OFFSET	4.1772	-0.2115	-0.2615
										CHANNELS 3 Xrotation Yrotation Zrotation
										JOINT LeftHandRing3
										{
											OFFSET	2.3804	-0.1198	-0.1495
											CHANNELS 3 Xrotation Yrotation Zrotation
											End Site
											{
												OFFSET	2.1047	-0.2588	-0.0995
											}
										}
									}
								}
								JOINT LeftHandPinky1
								{
									OFFSET	8.8844	-0.6751	-3.9118
									CHANNELS 3 Xrotation Yrotation Zrotation
									JOINT LeftHandPinky2
									{
										OFFSET	2.5694	-0.5358	-0.7093
										CHANNELS 3 Xrotation Yrotation Zrotation
										JOINT LeftHandPinky3
										{
											OFFSET	1.8842	-0.3924	-0.5205
											CHANNELS 3 Xrotation Yrotation Zrotation
											End Site
											{
												OFFSET	1.6723	-0.4595	-0.3837
											}
										}
									}
								}
								JOINT LeftHandThumb1
								{
									OFFSET	2.0591	-1.5585	1.5610
									CHANNELS 3 Xrotation Yrotation Zrotation
									JOINT LeftHandThumb2
									{
										OFFSET	3.8337	-1.2590	2.8904
										CHANNELS 3 Xrotation Yrotation Zrotation
										JOINT LeftHandThumb3
										{
											OFFSET	2.5244	-0.9033	1.8187
											CHANNELS 3 Xrotation Yrotation Zrotation
											End Site
											{
												OFFSET	1.8564	-0.6390	1.2712
											}
										}
									}
								}
							}
						}
					}
				}
				JOINT RightShoulder
				{
					OFFSET	-2.4808	23.7139	8.1245
					CHANNELS 3 Xrotation Yrotation Zrotation
					JOINT RightArm
					{
						OFFSET	-14.4958	3.4020	-5.5048
						CHANNELS 3 Xrotation Yrotation Zrotation
						JOINT RightForeArm
						{
							OFFSET	-30.7865	-0.1091	-0.2668
							CHANNELS 3 Xrotation Yrotation Zrotation
							JOINT RightHand
							{
								OFFSET	-25.6825	0.0745	-0.1538
								CHANNELS 3 Xrotation Yrotation Zrotation
								JOINT RightHandIndex1
								{
									OFFSET	-9.9539	0.8706	2.7647
									CHANNELS 3 Xrotation Yrotation Zrotation
									JOINT RightHandIndex2
									{
										OFFSET	-3.7232	-0.9079	0.6560
										CHANNELS 3 Xrotation Yrotation Zrotation
										JOINT RightHandIndex3
										{
											OFFSET	-2.5417	-0.6201	0.4480
											CHANNELS 3 Xrotation Yrotation Zrotation
											End Site
											{
												OFFSET	-1.8087	-0.5399	0.2934
											}
										}
									}
								}
								JOINT RightHandMiddle1
								{
									OFFSET	-10.1024	1.0053	0.2407
									CHANNELS 3 Xrotation Yrotation Zrotation
									JOINT RightHandMiddle2
									{
										OFFSET	-4.6036	0.0129	-0.0272
										CHANNELS 3 Xrotation Yrotation Zrotation
										JOINT RightHandMiddle3
										{
											OFFSET	-2.5518	0.0078	-0.0156
											CHANNELS 3 Xrotation Yrotation Zrotation
											End Site
											{
												OFFSET	-2.2919	-0.1619	0.0031
											}
										}
									}
								}
								JOINT RightHandRing1
								{
									OFFSET	-9.5741	0.6709	-2.2651
									CHANNELS 3 Xrotation Yrotation Zrotation
									JOINT RightHandRing2
									{
										OFFSET	-4.1772	-0.2115	-0.2615
										CHANNELS 3 Xrotation Yrotation Zrotation
										JOINT RightHandRing3
										{
											OFFSET	-2.3804	-0.1198	-0.1495
											CHANNELS 3 Xrotation Yrotation Zrotation
											End Site
											{
												OFFSET	-2.1047	-0.2588	-0.0995
											}
										}
									}
								}
								JOINT RightHandPinky1
								{
									OFFSET	-8.8844	-0.6751	-3.9117
									CHANNELS 3 Xrotation Yrotation Zrotation
									JOINT RightHandPinky2
									{
										OFFSET	-2.5694	-0.5358	-0.7093
										CHANNELS 3 Xrotation Yrotation Zrotation
										JOINT RightHandPinky3
										{
											OFFSET	-1.8841	-0.3923	-0.5205
											CHANNELS 3 Xrotation Yrotation Zrotation
											End Site
											{
												OFFSET	-1.6723	-0.4595	-0.3837
											}
										}
									}
								}
								JOINT RightHandThumb1
								{
									OFFSET	-2.0591	-1.5584	1.5609
									CHANNELS 3 Xrotation Yrotation Zrotation
									JOINT RightHandThumb2
									{
										OFFSET	-3.8336	-1.2592	2.8905
										CHANNELS 3 Xrotation Yrotation Zrotation
										JOINT RightHandThumb3
										{
											OFFSET	-2.5244	-0.9032	1.8187
											CHANNELS 3 Xrotation Yrotation Zrotation
											End Site
											{
												OFFSET	-1.8564	-0.6390	1.2712
											}
										}
									}
								}
							}
						}
					}
				}
			}
		}
	}
	JOINT RightUpLeg
	{
		OFFSET	-10.3303	4.3651	-0.8515
		CHANNELS 3 Xrotation Yrotation Zrotation
		JOINT RightLeg
		{
			OFFSET	-0.8266	-44.9320	0.0000
			CHANNELS 3 Xrotation Yrotation Zrotation
			JOINT RightFoot
			{
				OFFSET	0.0000	-44.1205	0.0000
				CHANNELS 3 Xrotation Yrotation Zrotation
				JOINT RightToeBase
				{
					OFFSET	0.0000	-4.8492	10.1404
					CHANNELS 3 Xrotation Yrotation Zrotation
					End Site
					{
						OFFSET	0.0000	0.0000	6.8028
					}
				}
			}
		}
	}
	JOINT LeftUpLeg
	{
		OFFSET	10.3301	4.3654	-0.8515
		CHANNELS 3 Xrotation Yrotation Zrotation
		JOINT LeftLeg
		{
			OFFSET	0.8267	-44.9323	0.0000
			CHANNELS 3 Xrotation Yrotation Zrotation
			JOINT LeftFoot
			{
				OFFSET	0.0000	-44.1205	0.0000
				CHANNELS 3 Xrotation Yrotation Zrotation
				JOINT LeftToeBase
				{
					OFFSET	0.0000	-4.8493	10.1404
					CHANNELS 3 Xrotation Yrotation Zrotation
					End Site
					{
						OFFSET	0.0000	0.0000	6.8028
					}
				}
			}
		}
	}
}
MOTION
Frames:	8
Frame Time: 0.0333333000
	-81.7851	91.9923	-164.3907	62.921540	50.386530	3.938594	0.000002	0.000005	-0.000002	4.195876	1.112759	2.868537	13.762140	4.492400	9.207951	-15.295490	-6.036288	14.255180	-0.606928	0.107349	-3.015504	-5.618978	0.115926	-29.041690	-0.652034	-3.042556	4.682955	0.001698	-0.644629	-0.000199	0.000001	-0.000001	0.000001	0.000001	-0.000001	0.000001	0.000001	-0.000001	0.000001	0.000001	-0.000001	0.000001	0.000001	-0.000001	0.000001	0.000001	-0.000001	0.000001	0.000001	-0.000001	0.000001	0.000001	-0.000001	0.000001	0.000001	-0.000001	0.000001	0.000001	-0.000001	0.000001	0.000001	-0.000001	0.000001	0.000001	-0.000001	0.000001	0.000001	-0.000001	0.000001	0.000001	-0.000001	0.000001	0.000001	-0.000001	0.000001	0.000001	-0.000001	0.000001	2.017752	4.711934	14.072750	-14.818750	18.148520	-15.306630	178.482000	84.614130	-178.284500	0.000000	-0.000001	0.000001	0.000000	0.000000	0.000000	0.000000	0.000000	0.000000	0.000000	0.000000	0.000000	0.000000	0.000000	0.000000	0.000000	0.000000	0.000000	0.000000	0.000000	0.000000	0.000000	0.000000	0.000000	0.000000	0.000000	0.000000	0.000000	0.000000	0.000000	0.000000	0.000000	0.000000	0.000000	0.000000	0.000000	0.000000	0.000000	0.000000	0.000000	0.000000	0.000000	0.000000	0.000000	0.000000	0.000000	0.000000	0.000000	-74.549160	22.659550	-55.637920	25.227830	-0.000004	-0.000001	0.000000	-0.000003	0.000001	-0.000001	0.000002	-0.000001	-36.330760	8.268752	-23.183490	-0.234015	0.000000	0.000000	0.000000	0.000000	0.000000	0.000000	0.000000	0.000000
	-81.7891	91.9664	-164.3451	62.693000	49.176990	4.162020	0.000000	0.000000	0.000000	4.254119	1.454180	2.813491	13.906500	5.616064	8.926949	-15.301020	-5.965278	14.087690	-0.841061	0.129464	-3.443419	-5.554984	0.106166	-28.867950	-1.058430	-3.673569	4.267756	0.002259	-0.657260	-0.000278	0.000000	-0.000002	0.000004	-0.000003	0.000003	-0.000003	0.000001	-0.000003	0.000003	-0.000003	0.000003	-0.000003	-0.000003	0.000003	-0.000003	0.000001	-0.000003	0.000003	-0.000003	0.000003	-0.000003	-0.000003	0.000003	-0.000003	0.000001	-0.000003	0.000003	-0.000003	0.000003	-0.000003	-0.000003	0.000003	-0.000003	0.000001	-0.000003	0.000003	-0.000003	0.000003	-0.000003	-0.000003	0.000003	-0.000003	0.000001	-0.000003	0.000003	-0.000003	0.000003	-0.000003	1.826167	4.286480	14.281960	-14.645250	18.288240	-16.064240	178.365800	84.982370	-178.169800	0.000000	0.000001	0.000001	-0.000010	-0.000002	0.000000	0.000000	0.000000	0.000000	0.000000	0.000000	0.000000	-0.000010	-0.000002	0.000000	0.000000	0.000000	0.000000	0.000000	0.000000	0.000000	-0.000010	-0.000002	0.000000	0.000000	0.000000	0.000000	0.000000	0.000000	0.000000	-0.000010	-0.000002	0.000000	0.000000	0.000000	0.000000	0.000000	0.000000	0.000000	-0.000010	-0.000002	0.000000	0.000000	0.000000	0.000000	0.000000	0.000000	0.000000	-75.190160	22.498230	-54.142970	25.449890	-0.000001	-0.000001	-0.000002	0.000002	0.000000	0.000000	0.000001	-0.000001	-36.367670	8.172178	-22.801890	-0.326022	0.000001	0.000001	0.000001	0.000001	0.000000	0.000001	0.000001	0.000000
	-81.7744	91.9622	-164.2820	62.322250	48.163650	4.523581	0.000000	0.000000	-0.000001	4.335320	1.718084	2.744044	14.145490	6.482992	8.614056	-15.239500	-5.841760	13.819400	-1.054664	0.148797	-3.777785	-5.582586	0.110353	-28.942880	-1.697740	-4.230119	4.286592	0.002672	-0.755456	-0.000326	0.000000	0.000000	0.000000	0.000000	0.000000	0.000000	0.000000	0.000000	0.000000	0.000000	0.000000	0.000000	0.000000	0.000000	0.000000	0.000000	0.000000	0.000000	0.000000	0.000000	0.000000	0.000000	0.000000	0.000000	0.000000	0.000000	0.000000	0.000000	0.000000	0.000000	0.000000	0.000000	0.000000	0.000000	0.000000	0.000000	0.000000	0.000000	0.000000	0.000000	0.000000	0.000000	0.000000	0.000000	0.000000	0.000000	0.000000	0.000000	1.727050	4.064641	14.390290	-14.382730	18.124140	-16.734880	178.277100	85.229060	-178.082400	0.000000	0.000002	0.000000	0.000000	0.000000	0.000000	0.000000	0.000000	0.000000	0.000000	0.000000	0.000000	0.000000	0.000000	0.000000	0.000000	0.000000	0.000000	0.000000	0.000000	0.000000	0.000000	0.000000	0.000000	0.000000	0.000000	0.000000	0.000000	0.000000	0.000000	0.000000	0.000000	0.000000	0.000000	0.000000	0.000000	0.000000	0.000000	0.000000	0.000000	0.000000	0.000000	0.000000	0.000000	0.000000	0.000000	0.000000	0.000000	-75.592410	22.320450	-52.952530	25.599870	0.000001	-0.000001	0.000002	0.000000	-0.000001	0.000000	0.000000	0.000000	-36.307340	8.076502	-22.485470	-0.391571	-0.000003	0.000000	0.000001	0.000001	0.000001	0.000001	0.000001	0.000001
	-81.7395	91.9991	-164.1979	61.835980	47.478940	5.012929	0.000005	0.000002	0.000004	4.420686	1.860722	2.660724	14.421260	6.944842	8.285421	-15.060040	-5.673942	13.483750	-1.247479	0.163736	-3.993965	-5.702159	0.128897	-29.267610	-2.564705	-4.652812	4.749502	0.003298	-0.942970	-0.000395	0.000001	0.000000	0.000000	0.000001	0.000000	0.000000	0.000001	0.000000	0.000000	0.000001	0.000000	0.000000	0.000001	0.000000	0.000000	0.000001	0.000000	0.000000	0.000001	0.000000	0.000000	0.000001	0.000000	0.000000	0.000001	0.000000	0.000000	0.000001	0.000000	0.000000	0.000001	0.000000	0.000000	0.000001	0.000000	0.000000	0.000001	0.000000	0.000000	0.000001	0.000000	0.000000	0.000001	0.000000	0.000000	0.000001	0.000000	0.000000	1.732343	4.076511	14.384520	-14.021100	17.649870	-17.230930	178.231500	85.344770	-178.037700	-0.000001	0.000000	-0.000001	-0.000001	0.000000	0.000000	-0.000001	0.000000	0.000000	-0.000001	0.000000	0.000000	-0.000001	0.000000	0.000000	-0.000001	0.000000	0.000000	-0.000001	0.000000	0.000000	-0.000001	0.000000	0.000000	-0.000001	0.000000	0.000000	-0.000001	0.000000	0.000000	-0.000001	0.000000	0.000000	-0.000001	0.000000	0.000000	-0.000001	0.000000	0.000000	-0.000001	0.000000	0.000000	-0.000001	0.000000	0.000000	-0.000001	0.000000	0.000000	-75.692080	22.179980	-52.237900	25.706390	-0.000001	0.000000	0.000002	0.000001	0.000000	0.000000	0.000001	0.000000	-36.145660	7.990141	-22.260080	-0.399866	-0.000001	-0.000002	0.000002	0.000000	0.000001	0.000000	0.000000	0.000000
	-81.6911	92.0835	-164.0884	61.256270	47.157270	5.595180	0.000004	0.000000	0.000005	4.487738	1.868726	2.565781	14.657330	6.954165	7.957374	-14.726570	-5.488274	13.150580	-1.428122	0.173683	-4.084426	-5.896455	0.160519	-29.795820	-3.623704	-4.907733	5.586031	0.004113	-1.219616	-0.000486	-0.000003	0.000001	-0.000001	0.000003	-0.000001	0.000001	-0.000003	0.000001	-0.000001	0.000003	-0.000001	0.000001	0.000003	-0.000001	0.000001	-0.000003	0.000001	-0.000001	0.000003	-0.000001	0.000001	0.000003	-0.000001	0.000001	-0.000003	0.000001	-0.000001	0.000003	-0.000001	0.000001	0.000003	-0.000001	0.000001	-0.000003	0.000001	-0.000001	0.000003	-0.000001	0.000001	0.000003	-0.000001	0.000001	-0.000003	0.000001	-0.000001	0.000003	-0.000001	0.000001	1.832547	4.300709	14.274990	-13.577490	16.901790	-17.490920	178.214500	85.384580	-178.021300	0.000000	0.000003	0.000001	0.000000	0.000000	0.000000	0.000000	0.000000	0.000000	0.000000	0.000000	0.000000	0.000000	0.000000	0.000000	0.000000	0.000000	0.000000	0.000000	0.000000	0.000000	0.000000	0.000000	0.000000	0.000000	0.000000	0.000000	0.000000	0.000000	0.000000	0.000000	0.000000	0.000000	0.000000	0.000000	0.000000	0.000000	0.000000	0.000000	0.000000	0.000000	0.000000	0.000000	0.000000	0.000000	0.000000	0.000000	0.000000	-75.473850	22.107730	-52.020960	25.797050	-0.000001	0.000000	0.000000	-0.000001	0.000000	0.000000	-0.000001	0.000000	-35.888210	7.914170	-22.125600	-0.328092	-0.000002	-0.000003	0.000000	0.000001	0.000002	0.000001	0.000001	0.000000
	-81.6436	92.2091	-163.9504	60.601680	47.138830	6.212374	0.000000	0.000000	-0.000001	4.512984	1.756548	2.462326	14.770050	6.556285	7.641651	-14.226700	-5.313269	12.888340	-1.598305	0.178109	-4.048122	-6.126735	0.200384	-30.422770	-4.808806	-4.963978	6.639021	0.005176	-1.602213	-0.000587	0.000000	0.000000	0.000000	0.000000	0.000000	0.000000	0.000000	0.000000	0.000000	0.000000	0.000000	0.000000	0.000000	0.000000	0.000000	0.000000	0.000000	0.000000	0.000000	0.000000	0.000000	0.000000	0.000000	0.000000	0.000000	0.000000	0.000000	0.000000	0.000000	0.000000	0.000000	0.000000	0.000000	0.000000	0.000000	0.000000	0.000000	0.000000	0.000000	0.000000	0.000000	0.000000	0.000000	0.000000	0.000000	0.000000	0.000000	0.000000	2.002163	4.677472	14.089760	-13.077890	15.952010	-17.497100	178.181500	85.464680	-177.988700	-0.000001	-0.000001	0.000001	-0.000001	0.000000	0.000000	-0.000001	0.000000	0.000000	-0.000001	0.000000	0.000000	-0.000001	0.000000	0.000000	-0.000001	0.000000	0.000000	-0.000001	0.000000	0.000000	-0.000001	0.000000	0.000000	-0.000001	0.000000	0.000000	-0.000001	0.000000	0.000000	-0.000001	0.000000	0.000000	-0.000001	0.000000	0.000000	-0.000001	0.000000	0.000000	-0.000001	0.000000	0.000000	-0.000001	0.000000	0.000000	-0.000001	0.000000	0.000000	-74.970750	22.094640	-52.184930	25.887680	0.000001	0.000001	0.000000	-0.000002	0.000001	0.000000	0.000000	0.000000	-35.547410	7.840199	-22.050580	-0.184340	0.000002	0.000002	-0.000002	-0.000001	-0.000001	-0.000001	-0.000001	0.000000
	-81.6177	92.3618	-163.7833	59.894040	47.294840	6.795365	0.000004	0.000000	0.000005	4.476092	1.557870	2.352827	14.685200	5.861141	7.339610	-13.575780	-5.159659	12.717990	-1.739214	0.175849	-3.884942	-6.335040	0.238681	-30.990800	-6.030052	-4.778500	7.680974	0.006646	-2.128858	-0.000715	0.000000	0.000000	0.000000	0.000000	0.000000	0.000000	0.000000	0.000000	0.000000	0.000000	0.000000	0.000000	0.000000	0.000000	0.000000	0.000000	0.000000	0.000000	0.000000	0.000000	0.000000	0.000000	0.000000	0.000000	0.000000	0.000000	0.000000	0.000000	0.000000	0.000000	0.000000	0.000000	0.000000	0.000000	0.000000	0.000000	0.000000	0.000000	0.000000	0.000000	0.000000	0.000000	0.000000	0.000000	0.000000	0.000000	0.000000	0.000000	2.201573	5.116006	13.872270	-12.537270	14.909810	-17.285230	178.062200	85.738550	-177.870000	0.000000	0.000004	0.000000	0.000000	0.000000	0.000000	0.000000	0.000000	0.000000	0.000000	0.000000	0.000000	0.000000	0.000000	0.000000	0.000000	0.000000	0.000000	0.000000	0.000000	0.000000	0.000000	0.000000	0.000000	0.000000	0.000000	0.000000	0.000000	0.000000	0.000000	0.000000	0.000000	0.000000	0.000000	0.000000	0.000000	0.000000	0.000000	0.000000	0.000000	0.000000	0.000000	0.000000	0.000000	0.000000	0.000000	0.000000	0.000000	-74.256660	22.092970	-52.517150	25.981390	-0.000004	-0.000002	0.000002	0.000000	0.000001	0.000000	0.000000	0.000000	-35.139080	7.751498	-21.975780	-0.007295	0.000001	-0.000003	0.000002	0.000003	0.000002	-0.000002	-0.000003	-0.000002
	-81.6359	92.5265	-163.5851	59.157810	47.464130	7.280506	0.000000	0.000000	-0.000001	4.364494	1.315700	2.239434	14.354630	5.010892	7.044923	-12.812520	-5.010392	12.587710	-1.813956	0.165504	-3.598223	-6.455362	0.261779	-31.319310	-7.187731	-4.304969	8.460100	0.008675	-2.844140	-0.000876	0.000001	0.000000	0.000000	0.000001	0.000000	0.000000	0.000001	0.000000	0.000000	0.000001	0.000000	0.000000	0.000001	0.000000	0.000000	0.000001	0.000000	0.000000	0.000001	0.000000	0.000000	0.000001	0.000000	0.000000	0.000001	0.000000	0.000000	0.000001	0.000000	0.000000	0.000001	0.000000	0.000000	0.000001	0.000000	0.000000	0.000001	0.000000	0.000000	0.000001	0.000000	0.000000	0.000001	0.000000	0.000000	0.000001	0.000000	0.000000	2.373664	5.490722	13.684800	-11.946900	13.928870	-16.939560	177.721500	86.367350	-177.530500	-0.000003	-0.000002	0.000000	-0.000003	-0.000001	0.000000	-0.000003	-0.000001	0.000000	-0.000003	-0.000001	0.000000	-0.000003	-0.000001	0.000000	-0.000003	-0.000001	0.000000	-0.000003	-0.000001	0.000000	-0.000003	-0.000001	0.000000	-0.000003	-0.000001	0.000000	-0.000003	-0.000001	0.000000	-0.000003	-0.000001	0.000000	-0.000003	-0.000001	0.000000	-0.000003	-0.000001	0.000000	-0.000003	-0.000001	0.000000	-0.000003	-0.000001	0.000000	-0.000003	-0.000001	0.000000	-73.432630	22.030860	-52.765390	26.075480	-0.000001	-0.000001	0.000002	0.000000	0.000000	0.000000	-0.000001	0.000000	-34.678780	7.626674	-21.824850	0.155561	-0.000005	0.000001	-0.000001	-0.000001	0.000000	-0.000001	-0.000001	0.000000
